<?xml version="1.0" standalone="no"?><!DOCTYPE svg PUBLIC "-//W3C//DTD SVG 1.1//EN" "http://www.w3.org/Graphics/SVG/1.1/DTD/svg11.dtd"><svg height="218" legacy-metrics="false" node-id="1" sillyvg="true" template-height="218" template-width="242" version="1.1" viewBox="0 0 242 218" width="242" xmlns="http://www.w3.org/2000/svg" xmlns:xlink="http://www.w3.org/1999/xlink"><defs node-id="51"></defs><g node-id="53"><path d="M 175.99 167.14 C 211.68 162.89 237.87 180.64 211.68 185.41 C 211.68 185.41 202.97 191.99 218.26 191.99 C 239.71 191.99 276.25 144.62 161.97 139.53" fill="#ffa6cc" fill-rule="nonzero" group-id="1" id="Shape" node-id="9" stroke="none" target-height="52.464005" target-width="79.30522" target-x="161.974" target-y="139.527"></path><path d="M 189.80 155.57 C 189.80 155.57 176.07 151.73 165.56 154.16 L 175.99 167.14 C 211.68 162.89 237.87 180.64 211.68 185.41 C 221.66 185.41 237.97 180.48 226.54 169.05 C 215.11 157.62 189.80 155.57 189.80 155.57 Z" fill="#f28cb7" fill-rule="nonzero" group-id="1" id="Shape" node-id="10" stroke="none" target-height="32.04811" target-width="64.84192" target-x="165.561" target-y="153.35889"></path><path d="M 84.92 85.09 C 84.92 85.09 66.39 70.70 78.71 41.82 C 91.50 11.82 68.47 0.02 51.52 4.86 C 30.22 10.94 38.27 32.37 39.77 35.64 C 42.93 42.49 54.91 45.52 56.73 40.29 C 59.28 32.99 51.09 41.09 49.07 34.36 C 46.91 27.16 49.48 21.65 59.59 21.43 C 63.53 21.34 68.88 26.83 63.75 47.77 C 57.69 72.53 44.73 107.82 76.74 122.53 C 76.74 122.53 86.89 119.02 84.92 85.09 Z" fill="#ffa6cc" fill-rule="nonzero" group-id="1" id="Shape" node-id="11" stroke="none" target-height="118.719826" target-width="48.13063" target-x="37.027237" target-y="3.8141685"></path><path d="M 66.07 57.09 C 76.64 20.90 73.56 20.96 68.12 15.52 C 62.67 10.07 42.17 7.89 42.17 27.43 C 42.17 38.86 46.41 42.06 49.92 42.75 C 50.36 42.83 50.78 42.88 51.20 42.91 C 53.10 43.00 54.55 42.48 54.55 42.48 C 55.58 42.06 56.36 41.35 56.73 40.29 C 59.28 32.99 51.09 41.09 49.07 34.36 C 46.91 27.16 49.48 21.65 59.59 21.43 C 63.53 21.34 68.88 26.83 63.76 47.77 C 57.69 72.53 44.74 107.82 76.74 122.53 C 76.74 122.53 83.41 120.22 84.89 101.25 C 71.14 110.16 58.20 84.04 66.07 57.09 Z" fill="#f28cb7" fill-rule="nonzero" group-id="1" id="Shape" node-id="12" stroke="none" target-height="110.80176" target-width="42.715" target-x="42.174" target-y="11.732242"></path><path d="M 59.59 173.37 C 24.33 176.34 28.88 125.39 39.20 101.72 C 47.07 83.66 29.53 89.29 29.53 89.29 C 5.43 100.23 24.75 121.90 24.75 134.85 C 24.75 140.56 17.96 136.55 17.96 136.55 C -6.26 122.11 -9.87 61.36 41.75 61.36 C 80.56 61.36 72.65 98.00 56.19 114.46 C 47.04 123.62 69.46 133.54 76.74 120.50 C 80.75 113.31 85.48 99.36 82.95 79.63 C 76.17 26.70 111.81 8.28 118.19 5.06 C 112.32 8.85 167.29 -17.88 197.23 27.80 C 233.89 83.74 165.88 99.42 171.71 123.30 C 187.88 189.65 93.58 168.41 64.27 165.44" fill="#f28cb7" fill-rule="nonzero" group-id="1" id="Shape" node-id="13" stroke="none" target-height="172.73763" target-width="207.24072" target-x="0.9032335" target-y="0.6974743"></path><path d="M 58.42 112.06 C 58.42 112.06 58.42 112.06 58.42 112.06 C 58.42 112.06 58.42 112.06 58.42 112.06 Z M 90.72 93.80 C 90.72 93.80 86.77 131.06 62.16 126.35 C 45.35 123.14 54.43 114.24 64.22 97.07 C 63.71 101.76 61.89 106.83 58.42 112.06 C 73.28 94.69 78.76 61.36 41.75 61.36 C -9.87 61.36 -6.25 122.11 17.96 136.55 C 17.96 136.55 19.80 137.63 21.56 137.87 C 20.88 135.98 20.63 134.85 21.06 134.85 C 21.06 134.85 -12.55 96.43 25.02 76.10 C 32.52 72.04 40.00 71.12 46.40 72.52 C 46.40 72.52 63.93 77.97 51.44 101.51 C 38.95 125.05 43.68 157.66 84.07 137.75 C 84.07 137.76 99.18 123.07 90.72 93.80 Z" fill="#ffa6cc" fill-rule="nonzero" group-id="1" id="Shape" node-id="14" stroke="none" target-height="82.548386" target-width="92.37073" target-x="0.90442014" target-y="61.36"></path><path d="M 158.78 135.06 C 158.78 148.00 178.96 167.14 178.96 167.14 C 216.77 204.95 164.43 222.22 151.35 216.84 C 144.13 213.87 151.35 210.89 151.35 210.89 C 182.10 206.58 172.16 184.41 146.25 178.61 C 121.61 173.09 126.71 148.87 126.71 148.87 C 126.71 148.87 125.86 136.13 140.31 130.18 C 154.75 124.23 158.78 129.87 158.78 135.06 Z" fill="#ffa6cc" fill-rule="nonzero" group-id="1" id="Shape" node-id="15" stroke="none" target-height="90.10281" target-width="66.15927" target-x="126.30185" target-y="127.66316"></path><path d="M 120.53 28.19 L 120.43 26.80 L 120.77 25.46 L 121.60 24.11 L 122.76 22.97 L 124.24 22.04 L 126.10 21.32 L 128.07 21.00 L 129.81 21.06 L 131.39 21.46 L 132.79 22.21 L 133.76 23.19 L 134.37 24.44 L 134.48 25.82 L 134.14 27.16 L 133.30 28.51 L 132.14 29.65 L 130.67 30.58 L 128.80 31.30 L 126.83 31.62 L 125.09 31.56 L 123.51 31.17 L 122.11 30.42 L 121.14 29.43 L 120.53 28.19 Z" fill="#c71870" fill-rule="nonzero" group-id="1" id="Oval" node-id="16" stroke-linecap="butt" stroke-width="1" target-height="10.618866" target-width="14.051407" target-x="120.42503" target-y="21.002121"></path><path d="M 151.86 53.26 L 151.86 52.17 L 152.43 51.09 L 153.41 50.22 L 154.82 49.61 L 156.35 49.43 L 157.64 49.68 L 158.67 50.32 L 159.22 51.27 L 159.22 52.36 L 158.65 53.44 L 157.67 54.30 L 156.26 54.92 L 154.73 55.10 L 153.45 54.85 L 152.41 54.20 L 151.86 53.26 Z" fill="#c71870" fill-rule="nonzero" group-id="1" id="Oval" node-id="17" stroke-linecap="butt" stroke-width="1" target-height="5.667698" target-width="7.3644714" target-x="151.85835" target-y="49.42953"></path><path d="M 194.48 58.54 C 194.48 87.40 168.57 94.07 146.46 110.79 C 126.87 125.61 149.46 150.65 120.53 164.09 C 117.21 165.63 81.73 166.11 72.25 150.65 C 68.23 144.09 91.38 147.55 91.38 109.42 C 91.38 89.62 87.36 70.90 89.92 58.54 C 95.74 30.46 115.13 6.39 141.66 6.39 C 168.18 6.39 194.48 29.68 194.48 58.54 Z" fill="#ffa6cc" fill-rule="nonzero" group-id="1" id="Shape" node-id="18" stroke="none" target-height="158.42046" target-width="122.66378" target-x="71.81722" target-y="6.392"></path><path d="M 125.28 53.26 L 126.66 53.90 L 127.78 55.03 L 128.57 56.51 L 129.05 58.36 L 129.13 60.35 L 128.80 62.54 L 128.07 64.63 L 127.05 66.34 L 125.77 67.75 L 124.37 68.69 L 122.85 69.16 L 121.33 69.07 L 119.94 68.43 L 118.82 67.30 L 118.03 65.82 L 117.55 63.97 L 117.47 61.98 L 117.80 59.79 L 118.53 57.71 L 119.55 55.99 L 120.84 54.58 L 122.23 53.64 L 123.75 53.17 L 125.28 53.26 Z" fill="#6e6e96" fill-rule="nonzero" group-id="1" id="Oval" node-id="19" stroke-linecap="butt" stroke-width="1" target-height="15.982719" target-width="11.66494" target-x="117.46801" target-y="53.17466"></path><path d="M 166.72 210.89 C 177.01 206.58 187.53 184.41 161.62 178.61 C 136.99 173.09 142.08 148.87 142.08 148.87 C 142.08 148.87 141.23 136.13 155.68 130.18 C 156.06 130.02 156.44 129.88 156.81 129.73 C 154.38 127.29 149.41 126.43 140.31 130.18 C 125.86 136.13 126.71 148.87 126.71 148.87 C 126.71 148.87 121.61 173.09 146.25 178.61 C 172.15 184.41 182.10 206.58 151.35 210.89 C 151.35 210.89 144.13 213.87 151.35 216.84 C 154.60 218.18 160.27 218.11 166.38 216.69 C 159.75 213.77 166.72 210.89 166.72 210.89 Z" fill="#f28cb7" fill-rule="nonzero" group-id="1" id="Shape" node-id="20" stroke="none" target-height="90.16494" target-width="51.506783" target-x="126.300835" target-y="127.63569"></path><path d="M 99.58 142.13 C 99.58 142.13 87.46 139.00 73.56 146.89 C 48.97 160.85 55.79 194.69 83.82 204.70 C 106.03 212.63 136.10 190.94 125.95 165.47 C 123.30 158.80 117.88 148.14 108.85 145.14 C 108.85 145.14 94.83 138.13 83.82 149.15 C 83.82 149.15 78.82 154.65 92.83 154.65 C 106.84 154.65 112.35 179.17 101.34 183.68 C 90.33 188.18 84.32 166.16 106.84 166.16" fill="#ffa6cc" fill-rule="nonzero" group-id="1" id="Shape" node-id="21" stroke="none" target-height="64.762054" target-width="69.50708" target-x="58.475643" target-y="141.55313"></path><path d="M 100.09 141.71 C 105.16 142.03 108.84 144.18 108.84 144.18 C 117.88 150.28 123.30 158.79 125.95 165.47 C 136.10 190.94 106.03 212.63 83.82 204.70 C 65.29 198.08 55.88 182.28 58.84 167.49 C 58.84 167.50 56.90 177.98 63.82 186.08 C 70.76 194.18 80.92 209.07 103.34 197.11 C 136.17 177.29 104.07 132.40 83.69 152.78 C 83.69 152.78 82.34 141.71 100.09 141.71 Z" fill="#f28cb7" fill-rule="nonzero" group-id="1" id="Shape" node-id="22" stroke="none" target-height="64.59935" target-width="69.62221" target-x="58.357517" target-y="141.714"></path><path d="M 85.09 156.18 C 85.09 156.18 69.72 165.79 75.96 179.24 C 82.07 192.38 108.48 193.35 107.15 172.00 C 107.38 177.17 105.61 181.94 101.34 183.68 C 91.36 187.77 85.49 170.05 101.25 166.70 C 96.25 153.84 85.09 156.18 85.09 156.18 Z M 107.03 170.47 L 107.03 170.46 C 107.03 170.49 107.03 170.51 107.03 170.53 C 107.03 170.51 107.03 170.49 107.03 170.47 Z" fill="#f28cb7" fill-rule="nonzero" group-id="1" id="Shape" node-id="23" stroke="none" target-height="32.640015" target-width="32.64215" target-x="74.51085" target-y="156.01509"></path><path d="M 143.46 164.26 C 143.46 164.26 136.03 154.04 167.98 159.55 L 141.88 150.15 C 141.88 150.14 139.62 157.83 143.46 164.26 Z" fill="#f28cb7" fill-rule="nonzero" group-id="1" id="Shape" node-id="24" stroke="none" target-height="14.1119995" target-width="26.750504" target-x="141.2305" target-y="150.146"></path><path d="M 116.93 108.20 C 116.93 108.20 105.72 132.06 112.95 148.09 C 119.61 162.82 132.63 153.87 132.63 153.87 C 132.63 153.87 135.74 112.59 116.93 108.20 Z" fill="#f28cb7" fill-rule="nonzero" group-id="1" id="Shape" node-id="25" stroke="none" target-height="48.300667" target-width="22.180603" target-x="110.58865" target-y="108.201"></path><path d="M 212.61 149.13 C 212.61 149.13 208.06 157.42 216.12 162.19 L 201.59 157.49 L 212.61 149.13 Z" fill="#f28cb7" fill-rule="nonzero" group-id="1" id="Shape" node-id="26" stroke="none" target-height="13.059998" target-width="14.535004" target-x="201.586" target-y="149.131"></path><path d="M 166.32 26.13 C 166.32 30.12 163.08 33.36 159.09 33.36 C 155.09 33.36 151.85 30.12 151.85 26.13 C 151.85 22.13 155.09 18.90 159.09 18.90 C 163.08 18.90 166.32 22.13 166.32 26.13 Z" fill="#f28cb7" fill-rule="nonzero" group-id="1" id="Oval" node-id="27" stroke="none" target-height="14.464001" target-width="14.4640045" target-x="151.853" target-y="18.897"></path><path d="M 128.38 21.01 C 128.38 22.58 127.10 23.85 125.53 23.85 C 123.96 23.85 122.69 22.58 122.69 21.01 C 122.69 19.44 123.96 18.17 125.53 18.17 C 127.10 18.17 128.38 19.44 128.38 21.01 Z" fill="#f28cb7" fill-rule="nonzero" group-id="1" id="Oval" node-id="28" stroke="none" target-height="5.681999" target-width="5.681999" target-x="122.693" target-y="18.172"></path><path d="M 142.56 41.63 C 142.56 43.34 141.17 44.73 139.46 44.73 C 137.74 44.73 136.35 43.34 136.35 41.63 C 136.35 39.91 137.74 38.53 139.46 38.53 C 141.17 38.53 142.56 39.91 142.56 41.63 Z" fill="#f28cb7" fill-rule="nonzero" group-id="1" id="Oval" node-id="29" stroke="none" target-height="6.200001" target-width="6.199997" target-x="136.355" target-y="38.527"></path><path d="M 199.15 42.92 C 199.15 49.34 193.95 54.54 187.53 54.54 C 181.11 54.54 175.91 49.34 175.91 42.92 C 175.91 36.50 181.11 31.30 187.53 31.30 C 193.95 31.30 199.15 36.50 199.15 42.92 Z" fill="#f28cb7" fill-rule="nonzero" group-id="1" id="Oval" node-id="30" stroke="none" target-height="23.246" target-width="23.245987" target-x="175.906" target-y="31.295"></path><path d="M 105.66 35.39 C 105.66 38.20 103.16 40.48 100.08 40.48 C 97.01 40.48 94.51 38.20 94.51 35.39 C 94.51 32.58 97.01 30.30 100.08 30.30 C 103.16 30.30 105.66 32.58 105.66 35.39 Z" fill="#f28cb7" fill-rule="nonzero" group-id="1" id="Oval" node-id="31" stroke="none" target-height="10.173998" target-width="11.147995" target-x="94.511" target-y="30.301"></path><path d="M 148.82 60.52 L 150.15 61.43 L 151.12 62.81 L 151.69 64.50 L 151.86 66.51 L 151.59 68.61 L 150.86 70.83 L 149.72 72.88 L 148.36 74.49 L 146.77 75.74 L 145.15 76.47 L 143.47 76.69 L 141.90 76.33 L 140.57 75.42 L 139.59 74.03 L 139.03 72.35 L 138.86 70.33 L 139.12 68.24 L 139.86 66.01 L 140.99 63.97 L 142.35 62.35 L 143.95 61.11 L 145.57 60.38 L 147.25 60.16 L 148.82 60.52 Z" fill="#6e6e96" fill-rule="nonzero" group-id="1" id="Oval" node-id="32" stroke-linecap="butt" stroke-width="1" target-height="16.52829" target-width="12.995483" target-x="138.8609" target-y="60.15851"></path><path d="M 134.36 143.35 C 134.36 143.35 199.78 183.70 218.47 134.43 C 218.47 134.43 224.42 121.26 214.22 100.44 C 204.03 79.63 222.72 69.00 229.09 79.63 C 235.46 90.25 235.68 64.12 217.62 59.23 C 199.56 54.35 193.83 83.88 199.56 104.27 C 205.30 124.66 169.62 128.48 159.85 105.11 C 150.07 81.75 122.46 94.50 119.28 108.73 C 116.09 122.96 119.91 134.85 134.36 143.35 Z" fill="#ffa6cc" fill-rule="nonzero" group-id="1" id="Shape" node-id="33" stroke="none" target-height="100.14423" target-width="114.74819" target-x="118.23666" target-y="58.75979"></path><path d="M 231.81 72.89 C 229.58 68.70 226.28 65.86 221.45 65.86 C 190.62 65.86 209.29 110.45 209.80 114.66 C 216.22 167.98 141.75 141.86 133.59 123.61 C 117.25 103.91 133.14 95.16 132.36 95.78 C 131.04 97.64 119.73 106.71 119.28 108.72 C 116.09 122.96 119.91 134.85 134.36 143.35 C 134.36 143.35 199.78 183.70 218.47 134.43 C 218.47 134.43 224.42 121.26 214.23 100.44 C 204.03 79.63 222.72 69.00 229.09 79.63 C 232.69 85.63 234.32 79.89 231.81 72.89 Z" fill="#f28cb7" fill-rule="nonzero" group-id="1" id="Shape" node-id="34" stroke="none" target-height="93.04702" target-width="114.781494" target-x="118.23976" target-y="65.857"></path><path d="M 150.24 127.85 C 150.24 132.32 146.62 135.94 142.16 135.94 C 137.69 135.94 134.07 132.32 134.07 127.85 C 134.07 123.39 137.69 119.77 142.16 119.77 C 146.62 119.77 150.24 123.39 150.24 127.85 Z" fill="#f28cb7" fill-rule="nonzero" group-id="1" id="Oval" node-id="35" stroke="none" target-height="16.172005" target-width="16.171997" target-x="134.069" target-y="119.766"></path><path d="M 175.38 143.79 C 175.38 146.71 173.02 149.07 170.10 149.07 C 167.18 149.07 164.81 146.71 164.81 143.79 C 164.81 140.87 167.18 138.50 170.10 138.50 C 173.02 138.50 175.38 140.87 175.38 143.79 Z" fill="#f28cb7" fill-rule="nonzero" group-id="1" id="Oval" node-id="36" stroke="none" target-height="10.570007" target-width="10.569992" target-x="164.813" target-y="138.502"></path><path d="M 194.12 132.26 C 194.12 133.85 192.83 135.14 191.24 135.14 C 189.64 135.14 188.35 133.85 188.35 132.26 C 188.35 130.67 189.64 129.38 191.24 129.38 C 192.83 129.38 194.12 130.67 194.12 132.26 Z" fill="#f28cb7" fill-rule="nonzero" group-id="1" id="Oval" node-id="37" stroke="none" target-height="5.7640076" target-width="5.7639923" target-x="188.354" target-y="129.375"></path><path d="M 160.49 125.77 C 160.49 126.70 159.74 127.45 158.81 127.45 C 157.88 127.45 157.13 126.70 157.13 125.77 C 157.13 124.84 157.88 124.09 158.81 124.09 C 159.74 124.09 160.49 124.84 160.49 125.77 Z" fill="#f28cb7" fill-rule="nonzero" group-id="1" id="Oval" node-id="38" stroke="none" target-height="3.364006" target-width="3.3639984" target-x="157.128" target-y="124.089"></path><path d="M 61.29 143.31 C 61.29 146.89 58.38 149.79 54.80 149.79 C 51.22 149.79 48.31 146.89 48.31 143.31 C 48.31 139.72 51.22 136.82 54.80 136.82 C 58.38 136.82 61.29 139.72 61.29 143.31 Z" fill="#ffa6cc" fill-rule="nonzero" group-id="1" id="Oval" node-id="39" stroke="none" target-height="12.972" target-width="12.972" target-x="48.315" target-y="136.82"></path><path d="M 221.86 164.33 C 221.86 166.32 220.25 167.93 218.26 167.93 C 216.27 167.93 214.66 166.32 214.66 164.33 C 214.66 162.34 216.27 160.72 218.26 160.72 C 220.25 160.72 221.86 162.34 221.86 164.33 Z" fill="#f28cb7" fill-rule="nonzero" group-id="1" id="Oval" node-id="40" stroke="none" target-height="7.2059937" target-width="7.2059937" target-x="214.655" target-y="160.723"></path><path d="M 171.54 172.61 C 171.54 175.00 169.60 176.94 167.22 176.94 C 164.83 176.94 162.89 175.00 162.89 172.61 C 162.89 170.22 164.83 168.29 167.22 168.29 C 169.60 168.29 171.54 170.22 171.54 172.61 Z" fill="#f28cb7" fill-rule="nonzero" group-id="1" id="Oval" node-id="41" stroke="none" target-height="8.64801" target-width="8.647995" target-x="162.892" target-y="168.288"></path><path d="M 234.96 167.09 C 234.96 168.02 234.20 168.77 233.27 168.77 C 232.34 168.77 231.59 168.02 231.59 167.09 C 231.59 166.16 232.34 165.41 233.27 165.41 C 234.20 165.41 234.96 166.16 234.96 167.09 Z" fill="#f28cb7" fill-rule="nonzero" group-id="1" id="Oval" node-id="42" stroke="none" target-height="3.3639984" target-width="3.3639984" target-x="231.591" target-y="165.405"></path><path d="M 85.25 175.82 C 85.25 179.72 82.09 182.88 78.19 182.88 C 74.29 182.88 71.14 179.72 71.14 175.82 C 71.14 171.93 74.29 168.77 78.19 168.77 C 82.09 168.77 85.25 171.93 85.25 175.82 Z" fill="#ffa6cc" fill-rule="nonzero" group-id="1" id="Oval" node-id="43" stroke="none" target-height="14.1119995" target-width="14.1119995" target-x="71.135" target-y="168.768"></path><path d="M 111.53 195.45 C 111.53 197.99 109.48 200.04 106.95 200.04 C 104.41 200.04 102.36 197.99 102.36 195.45 C 102.36 192.92 104.41 190.87 106.95 190.87 C 109.48 190.87 111.53 192.92 111.53 195.45 Z" fill="#f28cb7" fill-rule="nonzero" group-id="1" id="Oval" node-id="44" stroke="none" target-height="9.173996" target-width="9.174004" target-x="102.361" target-y="190.866"></path><path d="M 62.65 79.09 C 62.65 80.33 61.64 81.33 60.41 81.33 C 59.17 81.33 58.16 80.33 58.16 79.09 C 58.16 77.85 59.17 76.85 60.41 76.85 C 61.64 76.85 62.65 77.85 62.65 79.09 Z" fill="#f28cb7" fill-rule="nonzero" group-id="1" id="Oval" node-id="45" stroke="none" target-height="4.484001" target-width="4.4839973" target-x="58.164" target-y="76.851"></path><path d="M 40.00 72.69 C 40.00 76.40 36.99 79.41 33.28 79.41 C 29.56 79.41 26.55 76.40 26.55 72.69 C 26.55 68.97 29.56 65.96 33.28 65.96 C 36.99 65.96 40.00 68.97 40.00 72.69 Z" fill="#ffa6cc" fill-rule="nonzero" group-id="1" id="Oval" node-id="46" stroke="none" target-height="13.4520035" target-width="13.452" target-x="26.55" target-y="65.96"></path><path d="M 195.76 145.97 C 195.76 149.83 192.63 152.96 188.78 152.96 C 184.92 152.96 181.79 149.83 181.79 145.97 C 181.79 142.11 184.92 138.98 188.78 138.98 C 192.63 138.98 195.76 142.11 195.76 145.97 Z" fill="#ffa6cc" fill-rule="nonzero" group-id="1" id="Oval" node-id="47" stroke="none" target-height="13.972" target-width="13.972" target-x="181.789" target-y="138.983"></path><path d="M 215.32 121.72 C 215.32 125.01 212.66 127.68 209.37 127.68 C 206.07 127.68 203.41 125.01 203.41 121.72 C 203.41 118.43 206.07 115.76 209.37 115.76 C 212.66 115.76 215.32 118.43 215.32 121.72 Z" fill="#ffa6cc" fill-rule="nonzero" group-id="1" id="Oval" node-id="48" stroke="none" target-height="11.917999" target-width="11.917999" target-x="203.407" target-y="115.764"></path><path d="M 150.19 165.77 C 150.19 168.84 147.71 171.32 144.64 171.32 C 141.57 171.32 139.09 168.84 139.09 165.77 C 139.09 162.71 141.57 160.22 144.64 160.22 C 147.71 160.22 150.19 162.71 150.19 165.77 Z" fill="#ffa6cc" fill-rule="nonzero" group-id="1" id="Oval" node-id="49" stroke="none" target-height="11.100006" target-width="11.100006" target-x="139.09" target-y="160.222"></path></g></svg>